<svg width="481" height="416" viewBox="0 0 481 416" fill="none" xmlns="http://www.w3.org/2000/svg">
<mask id="mask0_630_3463" style="mask-type:alpha" maskUnits="userSpaceOnUse" x="134" y="109" width="257" height="190">
<path fill-rule="evenodd" clip-rule="evenodd" d="M367.407 174.713C379.628 189.517 386.781 203.725 389.265 217.039C389.233 217.044 389.2 217.049 389.168 217.053C395.319 249.934 373.262 276.755 330.048 289.967C329.65 290.166 329.253 290.265 328.856 290.365C328.259 290.464 327.564 290.663 326.968 290.861L324.881 291.458C324.682 291.507 324.509 291.557 324.335 291.607C324.161 291.656 323.987 291.706 323.788 291.756C322.993 292.054 322.099 292.252 321.205 292.451C321.106 292.501 320.981 292.526 320.857 292.55C320.733 292.575 320.609 292.6 320.51 292.65C320.129 292.734 319.729 292.837 319.32 292.943C318.769 293.085 318.198 293.231 317.628 293.345C316.982 293.494 316.361 293.619 315.74 293.743C315.119 293.867 314.498 293.991 313.853 294.14H313.654C298.651 297.22 281.562 298.909 262.783 298.909C243.21 298.909 225.624 297.121 210.124 293.941C156.868 282.714 128.75 253.602 135.705 216.94C159.602 220.25 208.987 225.275 267.581 225.275C208.987 225.271 159.593 220.249 135.706 216.94C138.19 203.725 145.344 189.418 157.565 174.713C160.843 170.739 163.824 166.665 166.507 162.293C191.247 122.749 218.172 114.105 250.066 110.429C258.114 109.535 266.361 109.535 274.408 110.429C306.699 114.006 333.427 122.451 358.464 162.194C361.147 166.566 364.128 170.739 367.407 174.713Z" fill="#FF1515"/>
</mask>
<g mask="url(#mask0_630_3463)">
<path d="M421.509 266.469C418.807 252.158 399.393 189.412 386.183 173.5C382.681 169.297 373.274 164.794 370.271 160.091C343.452 117.259 314.631 108.152 279.905 104.25C271.199 103.249 262.392 103.249 253.686 104.25C219.26 108.152 190.439 117.459 163.72 160.091C160.818 164.694 157.615 169.197 154.113 173.5C141.003 189.312 113.383 247.155 110.681 261.465C153.212 267.269 308.426 283.181 421.509 266.469Z" fill="#24A98B"/>
<path d="M317.654 292.289C318.668 292.105 319.591 291.828 320.513 291.643C320.79 291.551 320.974 291.551 321.251 291.459C322.081 291.275 323.003 290.998 323.833 290.813C324.202 290.721 324.571 290.629 324.94 290.537C325.678 290.352 326.324 290.168 327.062 289.983C327.707 289.799 328.261 289.614 328.906 289.43C329.275 289.338 329.736 289.153 330.105 289.061C372.902 275.964 396.698 276.702 390.518 244.051C289.707 255.949 185.667 260.376 134.385 237.779C127.467 274.119 158.273 281.867 211.031 293.027C226.434 296.163 243.867 298.008 263.236 298.008C281.867 298.008 298.838 296.347 313.78 293.304C313.872 293.304 313.872 293.304 313.964 293.304C315.163 292.842 316.362 292.566 317.654 292.289Z" fill="#EFFD9C"/>
</g>
<path d="M135.399 390.795H356.208C362.295 390.795 367.276 385.814 367.276 379.727V376.499C367.276 358.79 352.887 344.401 335.178 344.401H114.37V369.858C114.37 381.387 123.778 390.795 135.399 390.795Z" fill="#199C7D"/>
<path d="M114.37 372.625H288.692V391.072H132.817C122.629 391.072 114.37 382.813 114.37 372.625Z" fill="#EFFD9C"/>
<path d="M333.702 315.532L317.008 313.319L316.454 357.222L327.891 358.79L339.328 360.358L350.304 317.746L333.702 315.532Z" fill="#FAFAFA"/>
<path d="M353.098 314.531L314.427 309.374L313.5 316.322L352.172 321.479L353.098 314.531Z" fill="#008089"/>
<path d="M349.44 310.57L318.813 306.485L317.887 313.433L348.513 317.518L349.44 310.57Z" fill="#008089"/>
<path d="M331.857 328.722L314.333 326.324L315.071 343.664L329.644 345.601L343.479 347.445L349.382 331.028L331.857 328.722Z" fill="#CF7D5D"/>
<path d="M330.751 341.635C333.247 341.635 335.27 339.611 335.27 337.115C335.27 334.619 333.247 332.596 330.751 332.596C328.255 332.596 326.231 334.619 326.231 337.115C326.231 339.611 328.255 341.635 330.751 341.635Z" fill="#FAFAFA"/>
<path d="M367.183 379.45C367.183 364.877 355.377 352.979 340.712 352.979H218.041V378.067C218.041 398.45 234.551 414.96 254.934 414.96H331.765C351.319 414.96 367.183 399.096 367.183 379.45Z" fill="#24A98B"/>
<path d="M230.493 392.363V255.765H292.474V365.339C292.474 380.28 304.557 392.363 319.499 392.363H364.786C359.62 405.645 346.8 414.96 331.674 414.96H254.843C245.527 414.96 236.949 411.456 230.493 405.737V392.363Z" fill="#EFFD9C"/>
<path d="M221.454 393.655C227.08 388.674 230.677 381.388 230.677 373.271V352.979H292.659V400.295V413.762C292.197 414.223 291.644 414.592 291.183 415.053H254.935C240.085 414.961 227.265 406.291 221.454 393.655Z" fill="#EFFD9C"/>
<path d="M320.513 291.644C319.59 291.92 318.576 292.105 317.653 292.289C318.576 292.105 319.59 291.828 320.513 291.644Z" fill="#24A98B"/>
<path d="M323.834 290.813C323.003 290.998 322.081 291.275 321.251 291.459C322.081 291.275 323.003 290.998 323.834 290.813Z" fill="#24A98B"/>
<path d="M262.959 297.916C263.051 297.916 263.143 297.916 263.236 297.916C243.867 297.916 226.434 296.071 211.031 292.935C226.342 296.163 243.682 297.916 262.959 297.916Z" fill="#24A98B"/>
<path d="M327.062 289.891C326.416 290.076 325.678 290.26 324.94 290.445C325.678 290.26 326.324 290.076 327.062 289.891Z" fill="#24A98B"/>
<path d="M263.604 297.916C282.42 297.916 299.114 296.163 313.78 293.212C298.838 296.256 281.959 297.916 263.235 297.916C263.42 297.824 263.512 297.916 263.604 297.916Z" fill="#EFFD9C"/>
<path d="M317.653 292.289C316.454 292.566 315.255 292.842 313.964 293.119C315.163 292.842 316.362 292.566 317.653 292.289Z" fill="#EFFD9C"/>
<path d="M321.251 291.459C320.974 291.551 320.79 291.551 320.513 291.643C320.79 291.551 320.974 291.551 321.251 291.459Z" fill="#EFFD9C"/>
<path d="M324.94 290.537C324.571 290.629 324.202 290.722 323.833 290.814C324.202 290.722 324.571 290.629 324.94 290.537Z" fill="#EFFD9C"/>
<path d="M330.105 288.969C329.736 289.061 329.275 289.245 328.906 289.338C329.275 289.245 329.644 289.153 330.105 288.969Z" fill="#24A98B"/>
<path d="M328.906 289.338C328.261 289.522 327.707 289.707 327.062 289.891C327.615 289.707 328.261 289.522 328.906 289.338Z" fill="#EFFD9C"/>
<path d="M178.196 252.629C182.985 252.629 186.866 245.939 186.866 237.687C186.866 229.435 182.985 222.745 178.196 222.745C173.408 222.745 169.526 229.435 169.526 237.687C169.526 245.939 173.408 252.629 178.196 252.629Z" fill="#1C1C1C"/>
<path d="M301.974 252.629C306.762 252.629 310.644 245.939 310.644 237.687C310.644 229.435 306.762 222.745 301.974 222.745C297.186 222.745 293.304 229.435 293.304 237.687C293.304 245.939 297.186 252.629 301.974 252.629Z" fill="#1C1C1C"/>
<path d="M293.212 374.008H232.614C223.667 374.008 216.657 366.445 217.303 357.498L221.177 303.726H304.925L308.615 357.591C309.168 366.445 302.158 374.008 293.212 374.008Z" fill="#2F2F2F"/>
<path d="M305.387 311.751L273.843 313.964C269.046 314.333 264.988 310.736 264.619 305.94L264.527 304.741C264.158 299.945 267.755 295.886 272.551 295.517L304.095 293.304C308.892 292.935 312.95 296.532 313.319 301.328L313.411 302.527C313.78 307.323 310.183 311.474 305.387 311.751Z" fill="#2F2F2F"/>
<path d="M222.837 311.751L255.396 314.056C260.192 314.425 264.25 310.828 264.619 306.032L264.711 304.833C265.08 300.037 261.483 295.979 256.687 295.61L224.128 293.304C219.332 292.935 215.274 296.532 214.905 301.328V302.527C214.536 307.323 218.133 311.474 222.837 311.751Z" fill="#2F2F2F"/>
<path d="M294.872 319.222C291.552 315.901 286.202 315.901 282.882 319.222C279.838 322.358 279.561 327.154 282.236 330.567C282.236 330.567 282.236 330.567 282.236 330.474C282.236 329.921 282.42 329.46 282.789 329.091C283.158 328.722 283.619 328.537 284.173 328.537C284.265 328.537 284.265 328.537 284.357 328.537C282.789 326.324 282.974 323.28 284.911 321.343C287.032 319.222 290.537 319.222 292.751 321.343C293.304 321.897 294.226 321.897 294.872 321.343C295.425 320.79 295.425 319.867 294.872 319.222C294.872 319.222 294.872 319.314 294.872 319.222Z" fill="#24A98B"/>
<path d="M295.794 320.329C295.794 320.882 295.61 321.343 295.241 321.712C294.872 322.081 294.411 322.266 293.857 322.266C293.765 322.266 293.765 322.266 293.673 322.266C295.241 324.479 295.056 327.523 293.119 329.46C290.998 331.581 287.493 331.581 285.279 329.46C284.726 328.906 283.804 328.906 283.158 329.46C282.605 330.013 282.605 330.936 283.158 331.581C286.479 334.902 291.828 334.902 295.149 331.581C298.284 328.537 298.469 323.649 295.794 320.329Z" fill="#FFDF00"/>
<path d="M260.93 364.878H102.103C98.045 364.878 93.8945 361.557 92.7877 357.499C91.6808 353.441 94.0789 350.12 98.1372 350.12H256.872C260.93 350.12 265.081 353.441 266.187 357.499C267.387 361.557 264.988 364.878 260.93 364.878Z" fill="#B3B3B3"/>
<path d="M215.736 357.499H93.1568C89.0985 357.499 84.948 354.178 83.8412 350.12L61.7972 267.663C60.6904 263.605 63.0885 260.284 67.1468 260.284H189.726C193.784 260.284 197.935 263.605 199.041 267.663L221.085 350.12C222.192 354.178 219.794 357.499 215.736 357.499Z" fill="#CCCCCC"/>
<path d="M147.39 300.129C141.395 295.517 133.831 295.517 130.419 300.129C130.419 300.129 130.419 300.129 130.419 300.221C127.191 304.649 128.759 311.566 133.832 316.27V316.178C133.647 315.44 133.739 314.702 134.108 314.149C134.477 313.595 135.123 313.319 135.861 313.319C135.953 313.319 136.045 313.319 136.137 313.319C133.094 310.275 132.171 305.94 134.2 303.081C134.2 303.081 134.2 303.081 134.2 302.988C136.506 299.945 141.395 299.945 145.269 302.988C146.283 303.819 147.667 303.819 148.22 302.988C148.773 302.343 148.404 301.052 147.39 300.129Z" fill="white"/>
<path d="M149.142 301.697C149.327 302.435 149.235 303.173 148.866 303.726C148.497 304.28 147.851 304.557 147.113 304.557C147.021 304.557 146.929 304.557 146.837 304.557C149.88 307.6 150.803 311.935 148.773 314.794C148.773 314.794 148.773 314.794 148.773 314.887C146.468 317.93 141.579 317.93 137.705 314.887C136.691 314.057 135.307 314.057 134.754 314.887C134.201 315.717 134.477 317.008 135.492 317.838C135.492 317.838 135.492 317.838 135.584 317.838C141.579 322.45 149.142 322.45 152.555 317.838C152.555 317.838 152.555 317.838 152.555 317.746C155.691 313.226 154.123 306.309 149.142 301.697C149.142 301.697 149.142 301.605 149.142 301.697Z" fill="white"/>
<path d="M189.264 215.551C179.948 215.551 168.142 209.832 165.283 208.356C163.623 207.526 162.885 205.405 163.807 203.745C164.637 202.085 166.759 201.347 168.419 202.269C175.982 206.143 188.987 210.57 192.953 207.895C193.322 207.619 194.244 207.065 194.06 204.206C193.968 202.269 195.351 200.701 197.288 200.517C199.225 200.424 200.793 201.808 200.977 203.745C201.346 209.371 198.856 212.23 196.735 213.614C194.705 214.997 192.031 215.551 189.264 215.551Z" fill="#096162"/>
<path d="M324.94 204.298C324.018 204.298 323.188 203.929 322.542 203.284C315.163 195.905 308.246 192.492 301.974 193.046C294.872 193.691 290.721 199.502 290.721 199.502C289.615 201.07 287.493 201.439 285.925 200.425C284.357 199.318 283.988 197.196 285.003 195.628C285.28 195.259 290.906 187.143 301.236 186.128C309.629 185.298 318.484 189.449 327.338 198.395C328.722 199.779 328.722 201.9 327.338 203.284C326.693 204.022 325.77 204.298 324.94 204.298Z" fill="#096162"/>
<path d="M204.391 244.051H268.032L274.027 252.721L246.542 258.439L236.488 255.764L220.532 259.177L200.24 252.721L204.391 244.051Z" fill="#24A98B"/>
<path d="M270.983 253.735C270.983 253.735 253.182 262.59 237.133 253.735C221.177 262.59 203.283 253.735 203.283 253.735" fill="#24A98B"/>
<path d="M252.998 261.207C248.017 261.207 242.483 260.284 237.134 257.702C220.255 265.91 202.546 257.241 201.808 256.872C200.148 256.041 199.41 253.92 200.24 252.26C201.07 250.6 203.192 249.862 204.852 250.692C205.036 250.784 221.269 258.624 235.474 250.784C236.488 250.231 237.779 250.231 238.794 250.784C252.998 258.624 269.231 250.784 269.416 250.692C271.076 249.862 273.197 250.507 274.027 252.26C274.857 253.92 274.212 256.041 272.459 256.872C271.998 257.056 263.605 261.207 252.998 261.207Z" fill="#096162"/>
<path fill-rule="evenodd" clip-rule="evenodd" d="M384.77 83.9329H455.082C469.378 83.9329 481 72.3114 481 58.0151V25.9177C481 11.6215 469.378 0 455.082 0H372.533C358.237 0 346.615 11.6215 346.615 25.9177V58.0151C346.615 65.8512 350.107 72.8837 355.616 77.6392L349.659 99.4281L384.77 83.9329Z" fill="#F6F6F6"/>
<path d="M399.65 49.2532L397.99 45.6561C397.344 44.1803 397.99 42.4279 399.465 41.7823C401.495 40.9522 403.247 39.9376 404.723 38.8308C406.198 37.724 407.213 36.5249 407.766 35.0492C408.32 33.5734 408.135 31.9132 407.305 29.8841C406.475 27.9472 405.276 26.7481 403.616 26.1947C401.956 25.6413 400.203 25.7336 398.359 26.5637C396.422 27.3938 395.13 28.5928 394.485 30.1608C394.116 30.9909 394.024 31.821 394.116 32.7433C394.208 34.4036 393.378 35.8793 391.902 36.6172L391.626 36.7094C389.227 37.724 386.553 36.0638 386.368 33.4812C386.368 32.8356 386.368 32.0977 386.46 31.4521C386.737 29.1462 387.659 27.0248 389.227 25.0879C390.795 23.151 393.009 21.583 395.868 20.2918C398.543 19.185 401.033 18.6315 403.524 18.7238C406.014 18.816 408.228 19.5539 410.165 20.8452C412.101 22.1364 413.669 24.1656 414.868 26.8404C416.067 29.5152 416.436 32.0977 415.975 34.4036C415.514 36.7094 414.5 38.7386 412.747 40.491C411.087 42.2434 408.873 43.7192 406.198 45.0105L406.752 46.394C407.49 48.2386 406.567 50.36 404.723 51.1901C402.694 51.928 400.48 51.0979 399.65 49.2532ZM410.349 64.3796C408.965 65.0252 407.674 65.0252 406.383 64.564C405.092 64.1029 404.262 63.2728 403.708 61.9815C403.155 60.6902 403.155 59.4912 403.616 58.1999C404.169 56.9086 405.092 55.9863 406.475 55.4329C407.859 54.7873 409.15 54.7873 410.441 55.2484C411.456 55.6174 412.194 56.263 412.747 57.1853C413.577 58.4766 413.762 60.1368 413.208 61.6126C412.655 62.8116 411.732 63.7339 410.349 64.3796Z" fill="#1C1C1C"/>
<path d="M420.402 59.3986C418.926 59.0297 417.819 58.1996 417.082 57.0928C416.344 55.8937 416.159 54.6947 416.528 53.4034C416.897 52.1122 417.635 51.0976 418.834 50.3597C420.033 49.7141 421.324 49.5296 422.8 49.8985C424.184 50.2675 425.29 51.0053 425.936 52.2044C426.674 53.4034 426.858 54.6025 426.489 55.8937C426.121 57.185 425.383 58.1996 424.276 58.8452C423.169 59.5831 421.878 59.7676 420.402 59.3986ZM421.324 40.7674L426.582 17.6167C427.043 15.6798 428.98 14.3885 431.009 14.9419L432.392 15.3108C434.329 15.772 435.528 17.8011 434.975 19.8303L428.334 42.6121C427.781 44.4567 425.844 45.5635 423.999 45.1024C422.062 44.549 420.863 42.7043 421.324 40.7674Z" fill="#1C1C1C"/>
<path fill-rule="evenodd" clip-rule="evenodd" d="M41.7467 223.391H12.2671C5.4418 223.391 0 217.949 0 211.216V179.856C0 173.031 5.4418 167.589 12.2671 167.497H77.1076C83.9329 167.497 89.3747 173.031 89.3747 179.764V211.124C89.3747 217.949 83.8406 223.391 77.1076 223.391H54.1363L49.4371 229.571L58.1993 245.435L33.1117 229.94L42.1506 223.76L41.7467 223.391Z" fill="#F7F7F7"/>
<path d="M40.8597 179.948L26.1023 205.589C24.4421 208.541 26.5634 212.138 29.8839 212.138H59.4909C62.8114 212.138 64.9327 208.449 63.2725 205.589L48.5151 179.948C46.7627 176.997 42.6121 176.997 40.8597 179.948Z" fill="#E8355F"/>
<path d="M44.7334 206.512C44.0877 206.512 43.6266 206.327 43.2576 205.959C42.8887 205.59 42.7042 205.128 42.7042 204.575C42.7042 204.022 42.8887 203.56 43.2576 203.192C43.6266 202.823 44.18 202.638 44.7334 202.638C45.2868 202.638 45.8402 202.823 46.2091 203.192C46.578 203.56 46.7625 204.022 46.7625 204.575C46.7625 205.128 46.578 205.59 46.2091 205.959C45.7479 206.327 45.2868 206.512 44.7334 206.512ZM43.2576 199.318L42.9809 189.91C42.9809 189.08 43.6266 188.434 44.3644 188.434H44.9178C45.7479 188.434 46.3936 189.08 46.3013 189.91L46.0246 199.318C46.0246 200.056 45.379 200.701 44.6411 200.701C43.9033 200.701 43.2576 200.056 43.2576 199.318Z" fill="#F2F2F2"/>
</svg>
