<svg width="981" height="726" viewBox="0 0 981 726" fill="none" xmlns="http://www.w3.org/2000/svg">
<mask id="mask0_144_254" style="mask-type:alpha" maskUnits="userSpaceOnUse" x="0" y="0" width="981" height="727">
<path fill-rule="evenodd" clip-rule="evenodd" d="M893.323 249.309C940.229 306.131 967.687 360.664 977.22 411.766C977.097 411.784 976.973 411.802 976.849 411.82C1000.46 538.023 915.798 640.966 749.934 691.678C748.408 692.441 746.883 692.823 745.358 693.204C743.069 693.585 740.4 694.348 738.112 695.111L730.103 697.399C729.341 697.589 728.673 697.78 728.006 697.971C727.339 698.161 726.671 698.352 725.909 698.543C722.858 699.687 719.426 700.45 715.993 701.212C715.612 701.403 715.135 701.498 714.659 701.594C714.182 701.689 713.705 701.784 713.324 701.975C711.861 702.3 710.33 702.694 708.758 703.099C706.642 703.643 704.453 704.207 702.265 704.644C699.786 705.216 697.403 705.693 695.019 706.17C692.636 706.646 690.252 707.123 687.773 707.695H687.011C629.426 719.517 563.834 726 491.758 726C416.632 726 349.132 719.136 289.641 706.932C85.2363 663.84 -22.6865 552.103 4.00815 411.384C95.9147 424.117 286.055 443.455 511.555 443.377C286.055 443.44 95.881 424.112 4.00856 411.384C13.5424 360.664 40.9998 305.749 87.9061 249.309C100.491 234.055 111.931 218.42 122.228 201.64C217.185 49.8619 320.531 16.6842 442.945 2.57413C473.835 -0.858043 505.487 -0.858043 536.377 2.57413C660.316 16.3028 762.9 48.7178 859.001 201.259C869.298 218.038 880.738 234.055 893.323 249.309Z" fill="#EFFD9C"/>
</mask>
<g mask="url(#mask0_144_254)">
<path d="M977.22 411.766C967.687 360.664 940.229 306.131 893.323 249.309C880.738 234.055 869.298 218.038 859.001 201.259C762.9 48.7178 660.316 16.3028 536.377 2.57413C505.487 -0.858044 473.835 -0.858044 442.945 2.57413C320.531 16.6842 217.185 49.8619 122.228 201.64C111.931 218.42 100.491 234.055 87.9061 249.309C40.9997 305.749 13.5424 360.664 4.00854 411.384C155.406 432.359 573.749 471.257 977.22 411.766Z" fill="#24A98B"/>
<path d="M752.624 828.475C757.343 827.018 762.063 824.834 766.311 823.378C767.255 822.65 768.671 822.65 769.615 821.922C773.863 820.466 778.111 819.01 781.887 816.826C783.775 816.098 785.19 815.37 787.078 814.642C790.382 813.185 793.686 811.729 796.99 810.273C799.822 808.817 803.126 807.361 805.958 806.633C807.846 805.905 809.734 805.177 811.622 803.721C1016.94 706.89 1121.72 510.318 1092.45 269.334C593.093 382.909 75.7972 308.648 -111.581 268.606C-144.62 537.255 -11.048 750.573 241.936 832.843C315.566 856.14 399.107 869.245 492.088 869.245C581.293 869.245 662.474 856.868 733.744 834.299C734.216 834.299 734.216 834.299 734.688 834.299C740.824 832.115 746.488 830.659 752.624 828.475Z" fill="#EFFD9C"/>
</g>
<path d="M419.551 366.868V424.233C419.551 462.605 449.396 495.164 487.381 496.326C527.304 497.877 560.25 465.706 560.25 425.783V366.481L518.389 349.426L493.583 319.969C491.645 317.643 487.769 317.643 485.831 319.969L461.8 349.426L419.551 366.868Z" fill="#FC4C8B"/>
<path d="M636.643 308.047C627.728 337.892 603.309 359.985 574.627 364.248C542.068 368.9 508.735 349.52 494.006 316.961C492.068 313.085 486.642 313.085 484.704 316.961C473.463 341.38 452.145 361.148 427.727 364.636C391.292 369.675 353.695 344.868 342.455 304.558" fill="#24A98B"/>
<path d="M419.455 382.759C384.184 382.759 351.626 360.666 336.509 326.945C333.021 319.193 337.284 310.278 345.424 308.34C352.013 306.402 358.602 309.89 361.316 316.092C373.331 342.449 400.463 359.115 427.595 355.239C445.812 352.526 464.029 337.022 474.107 315.704C477.208 309.115 483.797 304.464 491.161 304.464C498.526 304.464 505.115 308.727 507.828 315.317C520.231 342.449 547.363 358.728 574.108 354.852C593.875 352.139 611.317 338.573 620.62 319.193C623.721 312.991 630.31 309.89 636.899 311.828C645.039 314.154 648.915 323.069 645.039 330.821C632.248 358.34 607.054 377.72 577.984 381.596C544.263 386.247 510.541 369.581 490.774 340.123C476.045 362.991 453.952 378.495 430.696 381.596C427.207 382.759 423.331 382.759 419.455 382.759Z" fill="#096162"/>
<path d="M247.47 347.969C266.308 347.969 281.579 321.592 281.579 289.054C281.579 256.516 266.308 230.139 247.47 230.139C228.633 230.139 213.362 256.516 213.362 289.054C213.362 321.592 228.633 347.969 247.47 347.969Z" fill="#1C1C1C"/>
<path d="M734.295 347.97C753.132 347.97 768.403 321.592 768.403 289.054C768.403 256.516 753.132 230.139 734.295 230.139C715.457 230.139 700.186 256.516 700.186 289.054C700.186 321.592 715.457 347.97 734.295 347.97Z" fill="#1C1C1C"/>
</svg>
