<svg width="1016" height="745" viewBox="0 0 1016 745" fill="none" xmlns="http://www.w3.org/2000/svg">
<path d="M925.545 260.441C912.153 244.613 899.572 226.757 887.803 208.089C792.839 56.7146 693.817 18.1608 555.023 2.73934C522.963 -0.913115 490.497 -0.913115 458.842 2.73934C320.86 18.5667 222.244 57.1204 128.092 208.089C116.323 226.757 103.742 244.613 90.7554 260.441C37.9977 323.75 8.37223 385.436 1.47314 443.063C27.4462 453.615 371.995 585.915 1015.64 472.689C1017.26 406.539 986.825 334.707 925.545 260.441Z" fill="#24A98B"/>
<path d="M1.47316 443.064C-2.99096 480.806 2.69064 517.33 18.518 551.014C75.7398 672.357 258.363 745 507.136 745C507.542 745 507.947 745 508.353 745C757.532 745 940.155 672.763 997.377 551.014C1009.15 526.258 1015.23 499.88 1015.64 472.689C371.995 585.915 27.4462 453.615 1.47316 443.064Z" fill="#EFFD9C"/>
<path d="M1012.39 551.826C1011.99 552.231 1011.99 553.043 1011.58 553.449C1011.99 553.043 1012.39 552.231 1012.39 551.826Z" fill="black"/>
<path d="M434.086 545.332V605.395C434.086 645.572 465.335 679.661 505.106 680.879C546.907 682.502 581.402 648.818 581.402 607.018V544.926L537.573 527.07L511.6 496.227C509.571 493.792 505.512 493.792 503.483 496.227L478.322 527.07L434.086 545.332Z" fill="#FC4C8B"/>
<path d="M662.162 485.676C652.828 516.924 627.261 540.057 597.23 544.521C563.14 549.391 528.239 529.099 512.817 495.01C510.788 490.951 505.107 490.951 503.078 495.01C491.309 520.577 468.988 541.274 443.421 544.927C405.273 550.202 365.907 524.229 354.138 482.023" fill="#24A98B"/>
<path d="M662.162 485.676C652.828 516.924 627.261 540.057 597.23 544.521C563.14 549.391 528.239 529.099 512.817 495.01C510.788 490.951 505.107 490.951 503.078 495.01C491.309 520.577 468.988 541.274 443.421 544.927C405.273 550.202 365.907 524.229 354.138 482.023" stroke="#096162" stroke-width="32.3541" stroke-miterlimit="10" stroke-linecap="round"/>
<path d="M410.548 211.335C372.806 173.593 311.526 173.593 273.784 211.335L253.087 232.033L232.39 210.929C194.648 173.187 133.367 173.187 95.6254 210.929C57.8833 248.672 57.8833 309.952 95.6254 347.694L116.728 368.797L115.917 369.203L252.681 505.967L410.548 348.1C448.291 310.358 448.291 249.077 410.548 211.335Z" fill="#FC4C8B"/>
<path d="M920.269 211.335C882.527 173.593 821.247 173.593 783.505 211.335L762.808 232.033L741.705 210.929C703.963 173.187 642.682 173.187 604.94 210.929C567.198 248.672 567.198 309.952 604.94 347.694L626.043 368.797L625.638 369.203L762.402 505.967L920.269 348.1C958.011 310.358 958.011 249.077 920.269 211.335Z" fill="#FC4C8B"/>
</svg>
