<svg width="460" height="550" viewBox="0 0 460 550" fill="none" xmlns="http://www.w3.org/2000/svg">
<path d="M126.461 382.442H50.4224V468.489C49.4797 488.645 62.3624 504.356 81.0502 506.18H402.641C411.507 506.18 418.761 497.214 418.761 486.255V480.444C418.761 448.564 397.805 422.661 372.013 422.661H144.568C134.568 422.661 126.461 414.554 126.461 404.554V382.442Z" fill="#199C7D"/>
<mask id="mask0_630_3566" style="mask-type:alpha" maskUnits="userSpaceOnUse" x="0" y="0" width="460" height="341">
<path fill-rule="evenodd" clip-rule="evenodd" d="M418.997 116.934C440.997 143.585 453.876 169.163 458.347 193.131C458.289 193.139 458.231 193.148 458.172 193.156C469.246 252.349 429.538 300.633 351.742 324.418C351.027 324.776 350.311 324.955 349.596 325.134C348.522 325.313 347.27 325.67 346.197 326.028L342.441 327.101C342.083 327.191 341.77 327.28 341.457 327.37C341.144 327.459 340.831 327.549 340.474 327.638C339.043 328.175 337.433 328.532 335.823 328.89C335.644 328.979 335.421 329.024 335.197 329.069C334.973 329.114 334.75 329.158 334.571 329.248C333.885 329.4 333.166 329.585 332.429 329.775C331.437 330.03 330.41 330.295 329.384 330.5C328.221 330.768 327.103 330.992 325.985 331.215C324.867 331.439 323.749 331.663 322.587 331.931H322.229C295.22 337.476 264.455 340.516 230.65 340.516C195.413 340.516 163.754 337.297 135.851 331.573C39.9784 311.361 -10.6407 258.953 1.87995 192.952C44.7554 198.892 133.212 207.896 238.232 207.957C133.212 207.89 44.7403 198.89 1.88086 192.952C6.35251 169.163 19.2309 143.406 41.2314 116.934C47.134 109.779 52.5 102.446 57.3294 94.5755C101.867 23.3867 150.34 7.82539 207.756 1.20735C222.244 -0.402449 237.09 -0.402449 251.578 1.20735C309.709 7.64653 357.824 22.8501 402.899 94.3966C407.728 102.267 413.094 109.779 418.997 116.934Z" fill="#FF1515"/>
</mask>
<g mask="url(#mask0_630_3566)">
<path d="M516.393 282.116C511.529 256.354 476.579 143.396 452.798 114.751C446.493 107.184 429.558 99.0774 424.153 90.6101C375.872 13.5034 323.987 -2.89082 261.473 -9.9169C245.799 -11.7185 229.945 -11.7185 214.272 -9.9169C152.298 -2.89082 100.413 13.8637 52.3116 90.6101C47.0871 98.8973 41.3221 107.004 35.0166 114.751C11.4162 143.216 -38.3068 247.346 -43.1711 273.108C33.3952 283.557 312.817 312.202 516.393 282.116Z" fill="#24A98B"/>
<path d="M0.148431 161.237C92.4682 201.918 295.011 197.404 476.496 175.985C466.947 224.985 492.831 323.37 389.77 343.165C286.708 362.96 82.8644 339.384 55.1353 333.739C-39.8412 313.648 -12.3048 226.658 0.148431 161.237Z" fill="#EFFD9C"/>
</g>
<path d="M50.422 472.935H304.304V506.241H83.7283C65.3337 506.241 50.422 491.329 50.422 472.935Z" fill="#EFFD9C"/>
<path d="M365.811 365.423L335.757 361.438L334.761 440.474L355.35 443.297L375.939 446.12L395.698 369.408L365.811 365.423Z" fill="#FAFAFA"/>
<path d="M400.727 363.621L331.109 354.336L329.441 366.844L399.059 376.129L400.727 363.621Z" fill="#008089"/>
<path d="M394.141 356.489L339.006 349.135L337.337 361.643L392.472 368.997L394.141 356.489Z" fill="#008089"/>
<path d="M362.49 389.167L330.941 384.85L332.27 416.066L358.505 419.553L383.411 422.873L394.038 393.318L362.49 389.167Z" fill="#CF7D5D"/>
<path d="M360.496 412.413C364.99 412.413 368.633 408.77 368.633 404.277C368.633 399.783 364.99 396.141 360.496 396.141C356.003 396.141 352.36 399.783 352.36 404.277C352.36 408.77 356.003 412.413 360.496 412.413Z" fill="#FAFAFA"/>
<path d="M418.595 485.509C418.595 459.274 397.341 437.855 370.941 437.855H150.104V483.019C150.104 519.714 179.825 549.436 216.521 549.436H354.834C390.035 549.436 418.595 520.876 418.595 485.509Z" fill="#24A98B"/>
<path d="M172.52 508.755V262.846H284.1V460.105C284.1 487.004 305.852 508.755 332.751 508.755H414.278C404.98 532.665 381.9 549.436 354.669 549.436H216.355C199.585 549.436 184.143 543.126 172.52 532.831V508.755Z" fill="#EFFD9C"/>
<path d="M156.247 511.08C166.376 502.114 172.851 488.996 172.851 474.384V437.855H284.432V523.035V547.277C283.602 548.107 282.606 548.772 281.775 549.602H216.52C189.788 549.436 166.708 533.828 156.247 511.08Z" fill="#EFFD9C"/>
<path d="M334.576 327.437C332.916 327.935 331.089 328.267 329.429 328.599C331.089 328.267 332.916 327.769 334.576 327.437Z" fill="#24A98B"/>
<path d="M340.554 325.942C339.059 326.274 337.399 326.772 335.904 327.104C337.399 326.772 339.059 326.274 340.554 325.942Z" fill="#24A98B"/>
<path d="M230.965 338.728C231.132 338.728 231.298 338.728 231.464 338.728C196.595 338.728 165.213 335.407 137.483 329.761C165.047 335.573 196.263 338.728 230.965 338.728Z" fill="#24A98B"/>
<path d="M346.367 324.282C345.205 324.614 343.876 324.946 342.548 325.278C343.876 324.946 345.039 324.614 346.367 324.282Z" fill="#24A98B"/>
<path d="M232.128 338.727C266.001 338.727 296.055 335.573 322.455 330.259C295.556 335.739 265.171 338.727 231.464 338.727C231.796 338.561 231.962 338.727 232.128 338.727Z" fill="#EFFD9C"/>
<path d="M329.43 328.599C327.271 329.097 325.113 329.595 322.788 330.093C324.947 329.595 327.105 329.097 329.43 328.599Z" fill="#EFFD9C"/>
<path d="M335.905 327.104C335.407 327.271 335.075 327.271 334.577 327.437C335.075 327.271 335.407 327.271 335.905 327.104Z" fill="#EFFD9C"/>
<path d="M342.547 325.444C341.883 325.61 341.219 325.776 340.555 325.942C341.219 325.776 341.883 325.61 342.547 325.444Z" fill="#EFFD9C"/>
<path d="M351.845 322.621C351.181 322.787 350.351 323.119 349.687 323.285C350.351 323.119 351.015 322.953 351.845 322.621Z" fill="#24A98B"/>
<path d="M349.686 323.285C348.524 323.617 347.528 323.949 346.365 324.281C347.361 323.949 348.524 323.617 349.686 323.285Z" fill="#EFFD9C"/>
<path d="M164.064 169.789C172.684 169.789 179.672 157.746 179.672 142.89C179.672 128.034 172.684 115.991 164.064 115.991C155.444 115.991 148.456 128.034 148.456 142.89C148.456 157.746 155.444 169.789 164.064 169.789Z" fill="#1C1C1C"/>
<path d="M386.893 169.789C395.513 169.789 402.501 157.746 402.501 142.89C402.501 128.034 395.513 115.991 386.893 115.991C378.273 115.991 371.285 128.034 371.285 142.89C371.285 157.746 378.273 169.789 386.893 169.789Z" fill="#1C1C1C"/>
<path d="M285.428 475.713H176.338C160.231 475.713 147.612 462.097 148.775 445.991L155.748 349.188H306.515L313.157 446.157C314.153 462.097 301.534 475.713 285.428 475.713Z" fill="#2F2F2F"/>
<path d="M307.345 363.634L250.558 367.619C241.924 368.283 234.618 361.807 233.954 353.173L233.788 351.015C233.124 342.38 239.6 335.074 248.234 334.41L305.02 330.425C313.655 329.761 320.961 336.237 321.625 344.871L321.791 347.03C322.455 355.664 315.979 363.136 307.345 363.634Z" fill="#2F2F2F"/>
<path d="M158.737 363.634L217.35 367.785C225.984 368.449 233.29 361.973 233.954 353.339L234.12 351.181C234.784 342.546 228.309 335.241 219.674 334.576L161.061 330.425C152.427 329.761 145.121 336.237 144.457 344.871V347.03C143.793 355.664 150.269 363.136 158.737 363.634Z" fill="#2F2F2F"/>
<path d="M288.416 377.083C282.439 371.106 272.808 371.106 266.831 377.083C261.351 382.729 260.853 391.363 265.669 397.506C265.669 397.506 265.669 397.506 265.669 397.34C265.669 396.344 266.001 395.514 266.665 394.85C267.329 394.186 268.159 393.854 269.155 393.854C269.322 393.854 269.322 393.854 269.488 393.854C266.665 389.869 266.997 384.389 270.484 380.902C274.303 377.083 280.612 377.083 284.597 380.902C285.594 381.898 287.254 381.898 288.416 380.902C289.413 379.906 289.413 378.246 288.416 377.083C288.416 377.083 288.416 377.249 288.416 377.083Z" fill="#24A98B"/>
<path d="M290.077 379.076C290.077 380.072 289.745 380.902 289.081 381.566C288.417 382.23 287.586 382.563 286.59 382.563C286.424 382.563 286.424 382.563 286.258 382.563C289.081 386.548 288.749 392.027 285.262 395.514C281.443 399.333 275.133 399.333 271.148 395.514C270.152 394.518 268.491 394.518 267.329 395.514C266.333 396.51 266.333 398.171 267.329 399.333C273.307 405.31 282.937 405.31 288.915 399.333C294.56 393.854 294.892 385.053 290.077 379.076Z" fill="#FFDF00"/>
<path d="M169.871 107.244C153.1 107.244 131.847 96.9495 126.699 94.2929C123.711 92.7985 122.382 88.9795 124.043 85.9907C125.537 83.0019 129.356 81.6736 132.345 83.334C145.96 90.3078 169.372 98.2779 176.512 93.4626C177.176 92.9645 178.837 91.9683 178.505 86.8209C178.339 83.334 180.829 80.5113 184.316 80.1792C187.803 80.0132 190.626 82.5038 190.958 85.9907C191.622 96.1193 187.139 101.267 183.32 103.757C179.667 106.248 174.852 107.244 169.871 107.244Z" fill="#096162"/>
<path d="M415.556 80.3906C413.895 80.3906 412.401 79.7264 411.239 78.5641C397.955 65.2807 385.502 59.1371 374.211 60.1334C361.426 61.2957 353.954 71.7564 353.954 71.7564C351.961 74.5791 348.142 75.2433 345.32 73.4168C342.497 71.4243 341.833 67.6053 343.659 64.7826C344.157 64.1184 354.286 49.5066 372.883 47.6802C387.993 46.1858 403.933 53.6577 419.873 69.7639C422.364 72.2545 422.364 76.0735 419.873 78.5641C418.711 79.8924 417.05 80.3906 415.556 80.3906Z" fill="#096162"/>
<path d="M250.888 192.855C264.504 180.391 297.894 159.611 322.528 176.202" stroke="#096162" stroke-width="12.0712" stroke-linecap="round"/>
<path fill-rule="evenodd" clip-rule="evenodd" d="M65.3896 311.494C56.1209 316.902 50.4219 326.827 50.4219 337.558V391.24H126.461V368.974C126.461 363.795 127.793 358.704 130.33 354.19L186.829 253.641C189.843 248.278 183.84 242.371 178.526 245.472L65.3896 311.494Z" fill="#199C7D"/>
</svg>
