<svg width="978" height="745" viewBox="0 0 978 745" fill="none" xmlns="http://www.w3.org/2000/svg">
<path d="M887.358 249.695C874.519 234.521 862.457 217.401 851.173 199.503C760.128 54.3746 665.191 17.4115 532.124 2.62632C501.386 -0.875441 470.259 -0.875441 439.911 2.62632C307.622 17.8006 213.074 54.7637 122.807 199.503C111.523 217.401 99.4617 234.521 87.011 249.695C36.819 310.392 8.02666 369.533 1.8013 424.783C248.092 588.199 772.578 594.424 974.124 453.186C975.291 389.766 946.11 320.898 887.358 249.695Z" fill="#24A98B"/>
<path d="M1.41239 424.394C-2.86755 460.579 2.57957 495.597 17.7539 527.891C72.6148 644.227 247.703 713.873 486.212 713.873C486.601 713.873 486.99 713.873 487.379 713.873C726.277 713.873 901.365 644.616 956.226 527.891C967.51 504.156 973.346 478.866 973.735 452.797C422.402 627.107 26.7029 434.51 1.41239 424.394Z" fill="#EFFD9C"/>
<path d="M971.012 528.669C970.623 529.058 970.623 529.836 970.234 530.225C970.234 529.836 970.623 529.447 971.012 528.669Z" fill="black"/>
<path d="M351.2 745H220.468V379.649L236.42 374.591C267.547 364.475 302.176 364.475 332.913 374.591L348.866 379.649L351.2 745Z" fill="#48C8FF"/>
<path d="M758.571 745H627.838V379.649L643.791 374.591C674.918 364.475 709.546 364.475 740.284 374.591L756.236 379.649L758.571 745Z" fill="#48C8FF"/>
<path d="M636.788 516.996C593.21 516.996 597.49 554.348 568.698 558.628C536.015 563.297 508.39 543.065 493.605 510.382C491.659 506.491 486.212 506.491 484.266 510.382C472.983 534.894 451.583 554.737 427.071 558.239C390.497 563.297 390.497 524.389 341.472 513.494" fill="#24A98B"/>
<path d="M636.788 516.996C593.21 516.996 597.49 554.348 568.698 558.628C536.015 563.297 508.39 543.065 493.605 510.382C491.659 506.491 486.212 506.491 484.266 510.382C472.983 534.894 451.583 554.737 427.071 558.239C390.497 563.297 390.497 524.389 341.472 513.494" stroke="#096162" stroke-width="31.3773" stroke-miterlimit="10" stroke-linecap="round"/>
<path d="M601.381 454.354C601.381 410.776 642.624 375.369 693.205 375.369C743.786 375.369 785.029 410.776 785.029 454.354M194.009 454.354C194.009 410.776 235.251 375.369 285.833 375.369C336.414 375.369 377.657 410.776 377.657 454.354" stroke="#1C1C1C" stroke-width="31.3773" stroke-miterlimit="10" stroke-linecap="round"/>
</svg>
