<svg width="1017" height="745" viewBox="0 0 1017 745" fill="none" xmlns="http://www.w3.org/2000/svg">
<path d="M888.387 208.202C793.371 56.7454 694.295 18.1707 555.426 2.74084C523.348 -0.913612 490.864 -0.913612 459.192 2.74084C321.135 18.5768 222.465 57.1515 128.261 208.202C116.486 226.88 103.898 244.747 90.9048 260.582C57.6087 300.781 33.6517 340.168 18.6278 378.337C95.7773 401.076 418.587 477.413 997.208 375.089C982.184 338.138 958.633 299.563 926.149 260.989C912.75 244.747 900.162 227.286 888.387 208.202Z" fill="#24A98B"/>
<path d="M18.2219 378.337C-6.14114 440.056 -6.14112 498.528 18.6279 550.908C75.881 672.317 258.603 745 507.512 745C507.918 745 508.324 745 508.73 745C758.045 745 940.767 672.723 998.02 550.908C1023.2 497.309 1022.38 438.026 997.208 375.089C418.181 477.413 95.7774 401.076 18.2219 378.337Z" fill="#EFFD9C"/>
<path d="M434.424 463.608V523.703C434.424 563.902 465.69 598.01 505.483 599.228C547.306 600.853 581.82 567.15 581.82 525.327V463.202L537.967 445.335L511.98 414.476C509.949 412.039 505.889 412.039 503.859 414.476L478.684 445.335L434.424 463.608Z" fill="#FC4C8B"/>
<path d="M662.623 403.512C653.284 434.778 627.703 457.923 597.655 462.389C563.547 467.262 528.626 446.959 513.197 412.851C511.166 408.791 505.482 408.791 503.451 412.851C491.676 438.432 469.343 459.141 443.762 462.795C405.593 468.074 366.206 442.087 354.431 399.858" fill="#24A98B"/>
<path d="M662.623 403.512C653.284 434.778 627.703 457.923 597.655 462.389C563.547 467.262 528.626 446.959 513.197 412.851C511.166 408.791 505.482 408.791 503.451 412.851C491.676 438.432 469.343 459.141 443.762 462.795C405.593 468.074 366.206 442.087 354.431 399.858" stroke="#096162" stroke-width="32.2982" stroke-miterlimit="10" stroke-linecap="round"/>
<path d="M250.483 213.887L376.359 315.399L229.369 433.966" stroke="#1C1C1C" stroke-width="32.2982" stroke-miterlimit="10" stroke-linecap="round" stroke-linejoin="round"/>
<path d="M767.79 213.887L641.915 315.399L788.499 433.966" stroke="#1C1C1C" stroke-width="32.2982" stroke-miterlimit="10" stroke-linecap="round" stroke-linejoin="round"/>
</svg>
