<svg width="397" height="477" viewBox="0 0 397 477" fill="none" xmlns="http://www.w3.org/2000/svg">
<mask id="mask0_630_3428" style="mask-type:alpha" maskUnits="userSpaceOnUse" x="0" y="0" width="397" height="294">
<path fill-rule="evenodd" clip-rule="evenodd" d="M361.289 100.829C380.26 123.81 391.365 145.865 395.22 166.532C395.17 166.539 395.12 166.546 395.07 166.554C404.618 217.594 370.379 259.228 303.298 279.738C302.681 280.046 302.064 280.2 301.447 280.355C300.522 280.509 299.442 280.817 298.517 281.126L295.278 282.051C294.97 282.128 294.7 282.205 294.43 282.283C294.16 282.36 293.89 282.437 293.582 282.514C292.348 282.977 290.96 283.285 289.572 283.594C289.417 283.671 289.225 283.709 289.032 283.748C288.839 283.786 288.646 283.825 288.492 283.902C287.9 284.033 287.281 284.193 286.645 284.356C285.789 284.577 284.904 284.805 284.019 284.982C283.017 285.213 282.053 285.406 281.089 285.598C280.125 285.791 279.161 285.984 278.158 286.215H277.85C254.561 290.997 228.033 293.619 198.883 293.619C168.5 293.619 141.201 290.842 117.141 285.907C34.4724 268.479 -9.17521 223.289 1.62104 166.377C5.47683 145.865 16.5815 123.655 35.552 100.829C40.6417 94.6597 45.2686 88.3362 49.4329 81.55C87.8365 20.1658 129.633 6.74764 179.142 1.04106C191.634 -0.347021 204.436 -0.347021 216.928 1.04106C267.054 6.59341 308.542 19.7031 347.408 81.3958C351.573 88.182 356.2 94.6597 361.289 100.829Z" fill="#EFFD9C"/>
</mask>
<g mask="url(#mask0_630_3428)">
<path d="M395.22 166.532C391.365 145.865 380.26 123.81 361.289 100.829C356.2 94.6597 351.573 88.182 347.409 81.3958C308.542 19.7031 267.054 6.59341 216.929 1.04106C204.436 -0.347021 191.635 -0.347021 179.142 1.04106C129.633 6.74764 87.8366 20.1658 49.4329 81.55C45.2687 88.3362 40.6417 94.6597 35.5521 100.829C16.5816 123.655 5.47689 145.865 1.62109 166.377C62.8511 174.86 232.043 190.592 395.22 166.532Z" fill="#24A98B"/>
<path d="M284.019 284.982C285.562 284.673 287.104 284.21 288.492 283.902C288.8 283.748 289.263 283.748 289.572 283.594C290.96 283.285 292.348 282.977 293.582 282.514C294.199 282.36 294.661 282.205 295.278 282.051C296.358 281.743 297.437 281.434 298.517 281.126C299.442 280.817 300.522 280.509 301.447 280.355C302.064 280.2 302.681 280.046 303.298 279.738C370.389 259.225 404.628 217.582 395.066 166.532C231.889 190.592 62.851 174.86 1.62103 166.377C-9.17519 223.289 34.4724 268.479 117.141 285.907C141.201 290.842 168.5 293.619 198.883 293.619C228.033 293.619 254.561 290.997 277.85 286.215C278.004 286.215 278.004 286.215 278.158 286.215C280.163 285.753 282.014 285.444 284.019 284.982Z" fill="#EFFD9C"/>
</g>
<path d="M258.879 170.233C255.332 182.109 245.616 190.9 234.202 192.597C221.247 194.448 207.983 186.736 202.122 173.781C201.351 172.238 199.192 172.238 198.421 173.781C193.948 183.497 185.465 191.363 175.749 192.751C161.251 194.756 146.29 184.885 141.818 168.845" fill="#24A98B"/>
<path d="M171.739 198.458C157.703 198.458 144.748 189.666 138.733 176.248C137.345 173.164 139.041 169.616 142.28 168.845C144.902 168.074 147.524 169.462 148.604 171.93C153.385 182.417 164.181 189.049 174.977 187.507C182.226 186.427 189.475 180.258 193.485 171.775C194.719 169.154 197.341 167.303 200.271 167.303C203.202 167.303 205.824 168.999 206.903 171.621C211.839 182.417 222.635 188.895 233.277 187.353C241.143 186.273 248.083 180.875 251.785 173.164C253.019 170.696 255.641 169.462 258.263 170.233C261.501 171.159 263.044 174.706 261.501 177.79C256.258 188.741 246.232 196.453 234.665 197.995C221.247 199.846 207.829 193.214 199.963 181.492C194.102 190.592 185.311 196.761 176.057 197.995C174.823 198.303 173.281 198.458 171.739 198.458Z" fill="#096162"/>
<path d="M103.414 186.273C110.91 186.273 116.987 175.777 116.987 162.83C116.987 149.883 110.91 139.387 103.414 139.387C95.9184 139.387 89.8418 149.883 89.8418 162.83C89.8418 175.777 95.9184 186.273 103.414 186.273Z" fill="#1C1C1C"/>
<path d="M297.283 186.273C304.779 186.273 310.856 175.777 310.856 162.83C310.856 149.883 304.779 139.387 297.283 139.387C289.787 139.387 283.711 149.883 283.711 162.83C283.711 175.777 289.787 186.273 297.283 186.273Z" fill="#1C1C1C"/>
<path d="M316.561 321.072L290.805 326.779L313.939 391.71L331.522 387.7L349.258 383.69L342.164 315.211L316.561 321.072Z" fill="#FAFAFA"/>
<path d="M344.516 309.065L284.942 322.532L287.357 333.213L346.93 319.746L344.516 309.065Z" fill="#008089"/>
<path d="M336.982 305.254L289.895 315.898L292.309 326.579L339.396 315.935L336.982 305.254Z" fill="#008089"/>
<path d="M321.035 341.277L294.044 347.446L304.532 372.432L327.05 367.342L348.179 362.561L348.025 335.262L321.035 341.277Z" fill="#CF7D5D"/>
<path d="M323.965 361.481C327.883 361.481 331.06 358.304 331.06 354.386C331.06 350.468 327.883 347.292 323.965 347.292C320.047 347.292 316.87 350.468 316.87 354.386C316.87 358.304 320.047 361.481 323.965 361.481Z" fill="#FAFAFA"/>
<path d="M377.175 306.111C377.484 301.022 370.697 299.171 368.23 303.489L341.856 350.222C338 356.854 330.906 361.018 323.348 361.018H95.2395C61.1543 361.018 33.3926 388.625 33.3926 422.865C33.3926 428.88 38.328 433.815 44.343 433.815H335.533C355.583 433.815 371.931 417.467 371.931 397.417C371.931 397.262 371.931 397.108 371.931 396.954L377.175 306.111Z" fill="#199C7D"/>
<path d="M149.837 404.974V433.969H335.84C353.423 433.969 368.075 421.476 371.468 404.974H149.837Z" fill="#EFFD9C"/>
<path d="M33.5468 421.322C33.5468 398.496 52.0546 379.988 74.8808 379.988H267.054V419.163C267.054 451.089 241.143 476.846 209.371 476.846H89.0702C58.3781 477 33.5468 452.015 33.5468 421.322Z" fill="#24A98B"/>
<path fill-rule="evenodd" clip-rule="evenodd" d="M210.586 476.984C224.694 476.659 237.45 471.322 247.311 462.657V462.644C253.313 457.367 258.218 450.864 261.655 443.532C254.056 436.866 248.762 427.435 247.466 416.832V227.762H150.454V379.988H150.146V404.383C147.61 425.271 129.753 441.527 108.195 441.527H37.2479C45.268 462.194 65.4723 477 89.0698 477L152.459 477L209.216 477C209.674 477 210.131 476.995 210.586 476.984Z" fill="#EFFD9C"/>
<path d="M245.77 412.84H151.072C137.037 412.84 126.086 400.964 127.012 387.083L133.027 302.873H263.969L269.83 387.083C270.756 400.964 259.805 412.84 245.77 412.84Z" fill="#2F2F2F"/>
<path d="M263.969 315.52L216.466 318.913C208.446 319.53 201.659 313.515 201.043 305.495C200.426 297.475 206.441 290.688 214.461 290.071L261.964 286.678C269.984 286.061 276.77 292.076 277.387 300.096C278.004 307.962 271.989 314.903 263.969 315.52Z" fill="#2F2F2F"/>
<path d="M136.574 315.52L185.62 319.067C193.64 319.684 200.426 313.669 201.043 305.649C201.66 297.629 195.645 290.843 187.625 290.226L138.579 286.678C130.559 286.061 123.773 292.076 123.156 300.096C122.693 307.962 128.708 314.903 136.574 315.52Z" fill="#2F2F2F"/>
<path d="M246.052 321.483C240.075 315.506 230.444 315.506 224.467 321.483C218.987 327.129 218.489 335.763 223.304 341.906C223.304 341.906 223.304 341.906 223.304 341.74C223.304 340.744 223.637 339.914 224.301 339.25C224.965 338.586 225.795 338.253 226.791 338.253C226.957 338.253 226.957 338.253 227.123 338.253C224.301 334.268 224.633 328.789 228.12 325.302C231.939 321.483 238.248 321.483 242.233 325.302C243.23 326.298 244.89 326.298 246.052 325.302C247.049 324.306 247.049 322.645 246.052 321.483C246.052 321.483 246.052 321.649 246.052 321.483Z" fill="#24A98B"/>
<path d="M247.713 323.476C247.713 324.472 247.381 325.302 246.717 325.966C246.052 326.63 245.222 326.962 244.226 326.962C244.06 326.962 244.06 326.962 243.894 326.962C246.717 330.948 246.384 336.427 242.898 339.914C239.079 343.733 232.769 343.733 228.784 339.914C227.788 338.918 226.127 338.918 224.965 339.914C223.969 340.91 223.969 342.571 224.965 343.733C230.943 349.71 240.573 349.71 246.551 343.733C252.196 338.253 252.528 329.453 247.713 323.476Z" fill="#FFDF00"/>
</svg>
