<svg width="1017" height="745" viewBox="0 0 1017 745" fill="none" xmlns="http://www.w3.org/2000/svg">
<path d="M887.56 208.089C792.596 56.7146 693.574 18.1608 554.781 2.73934C522.72 -0.913115 490.254 -0.913115 458.599 2.73934C320.618 18.5667 222.001 57.1204 127.849 208.089C116.08 226.757 103.499 244.613 90.5128 260.441C71.033 283.573 54.7999 306.705 41.8134 329.431C110.398 352.97 397.319 429.671 973.19 327.808C960.204 305.488 944.376 283.167 925.708 260.441C912.316 244.613 899.735 227.163 887.56 208.089Z" fill="#24A98B"/>
<path d="M41.8134 329.837C-4.45108 409.38 -12.5677 484.864 18.6812 551.014C75.903 672.357 258.526 745 507.299 745C507.705 745 508.111 745 508.516 745C757.695 745 940.318 672.763 997.54 551.014C1028.79 484.458 1020.27 408.568 973.19 328.214C397.319 429.671 110.398 352.97 41.8134 329.837Z" fill="#EFFD9C"/>
<path d="M366.476 365.956V467.413C366.476 535.187 426.133 592.815 502.835 595.25C583.189 597.684 649.339 540.869 649.339 470.254V364.739L571.826 381.378L516.633 351.752C512.575 347.694 506.893 340.389 502.835 344.447L426.945 378.943L366.476 365.956Z" fill="#FC4C8B"/>
<path d="M693.574 329.837C682.211 367.579 651.368 395.582 615.249 400.452C574.261 406.133 532.46 381.784 513.792 340.795C511.357 335.519 504.458 335.925 502.023 340.795C487.819 371.638 460.629 396.393 429.786 400.857C383.927 407.351 336.445 375.696 322.647 324.967" fill="#24A98B"/>
<path d="M693.574 329.837C682.211 367.579 651.368 395.582 615.249 400.452C574.261 406.133 532.46 381.784 513.792 340.795C511.357 335.519 504.458 335.925 502.023 340.795C487.819 371.638 460.629 396.393 429.786 400.857C383.927 407.351 336.445 375.696 322.647 324.967" stroke="#096162" stroke-width="32.5099" stroke-miterlimit="10" stroke-linecap="round"/>
<path d="M199.275 302.647C199.275 249.889 242.293 206.871 295.051 206.871C347.808 206.871 390.826 249.889 390.826 302.647" stroke="#1C1C1C" stroke-width="32.5099" stroke-miterlimit="10" stroke-linecap="round"/>
<path d="M624.989 302.647C624.989 249.889 668.007 206.871 720.765 206.871C773.523 206.871 816.54 249.889 816.54 302.647" stroke="#1C1C1C" stroke-width="32.5099" stroke-miterlimit="10" stroke-linecap="round"/>
<path d="M756.883 340.795V291.689L818.975 358.245C862.399 404.915 908.663 448.339 954.928 491.763C968.726 504.749 979.683 520.982 986.582 540.462C1006.87 598.496 979.683 663.834 924.49 690.213C859.964 721.056 784.479 690.619 758.506 625.28C751.202 607.018 748.767 588.35 750.39 570.088C756.477 493.792 757.289 417.09 756.883 340.795Z" fill="#48C8FF"/>
<path d="M260.961 340.795V291.689L198.87 358.245C155.446 404.915 109.181 448.339 62.917 491.763C49.1188 504.749 38.1614 520.982 31.2624 540.462C10.9709 598.496 38.1614 663.834 93.3541 690.213C157.881 721.056 233.365 690.619 259.338 625.28C266.643 607.018 269.078 588.35 267.455 570.088C261.367 493.792 260.556 417.09 260.961 340.795Z" fill="#48C8FF"/>
</svg>
