<svg width="326" height="391" viewBox="0 0 326 391" fill="none" xmlns="http://www.w3.org/2000/svg">
<mask id="mask0_4469_1203" style="mask-type:alpha" maskUnits="userSpaceOnUse" x="0" y="0" width="326" height="241">
<path fill-rule="evenodd" clip-rule="evenodd" d="M296.412 82.723C311.976 101.577 321.087 119.672 324.25 136.627C324.209 136.633 324.168 136.639 324.127 136.646C331.961 178.521 303.87 212.678 248.835 229.505C248.328 229.758 247.822 229.884 247.316 230.011C246.557 230.138 245.671 230.391 244.912 230.644L242.255 231.403C242.002 231.466 241.78 231.529 241.559 231.593C241.337 231.656 241.116 231.719 240.863 231.782C239.851 232.162 238.712 232.415 237.573 232.668L237.573 232.668C237.446 232.732 237.288 232.763 237.13 232.795C236.972 232.826 236.814 232.858 236.687 232.921C236.202 233.029 235.693 233.16 235.172 233.294C234.47 233.475 233.744 233.662 233.018 233.807C232.195 233.997 231.404 234.155 230.613 234.313C229.822 234.471 229.032 234.63 228.209 234.819H227.956C208.849 238.742 187.085 240.893 163.17 240.893C138.242 240.893 115.845 238.615 96.1055 234.566C28.2821 220.268 -7.52759 183.193 1.32994 136.501C31.7696 140.718 94.6852 147.119 169.328 147.116C94.685 147.114 31.7584 140.716 1.33009 136.501C4.49349 119.672 13.6041 101.45 29.168 82.723C33.3437 77.6615 37.1398 72.4736 40.5563 66.906C72.0638 16.5446 106.355 5.53595 146.973 0.854119C157.223 -0.284706 167.725 -0.284706 177.974 0.854119C219.099 5.40942 253.137 16.165 285.024 66.7794C288.44 72.347 292.237 77.6615 296.412 82.723Z" fill="#EFFD9C"/>
</mask>
<g mask="url(#mask0_4469_1203)">
<path d="M324.25 136.627C321.087 119.672 311.976 101.577 296.412 82.723C292.237 77.6615 288.44 72.347 285.024 66.7794C253.137 16.165 219.099 5.40942 177.974 0.854119C167.725 -0.284706 157.223 -0.284706 146.973 0.854119C106.355 5.53595 72.0637 16.5446 40.5563 66.906C37.1398 72.4736 33.3437 77.6615 29.168 82.723C13.6041 101.45 4.49348 119.672 1.33008 136.501C51.5649 143.46 190.375 156.367 324.25 136.627Z" fill="#24A98B"/>
<path d="M249.727 274.895C251.293 274.412 252.86 273.687 254.269 273.204C254.582 272.962 255.052 272.962 255.365 272.721C256.775 272.238 258.184 271.754 259.437 271.03C260.064 270.788 260.533 270.547 261.16 270.305C262.256 269.822 263.352 269.339 264.449 268.856C265.388 268.372 266.484 267.889 267.424 267.648C268.051 267.406 268.677 267.165 269.303 266.681C337.428 234.552 372.195 169.328 362.486 89.3672C196.794 127.053 25.1506 102.412 -37.0231 89.1256C-47.9857 178.266 -3.66541 249.047 80.2768 276.344C104.708 284.075 132.427 288.423 163.279 288.423C192.878 288.423 219.815 284.316 243.463 276.828C243.62 276.828 243.62 276.828 243.776 276.828C245.812 276.103 247.691 275.62 249.727 274.895Z" fill="#EFFD9C"/>
</g>
<path d="M282.566 281.494C278.194 289.21 269.963 293.969 261.089 293.969H74.9914C46.5688 293.969 23.4192 316.99 23.4192 345.541C23.4192 350.557 27.5347 354.672 32.5504 354.672H275.364C292.083 354.672 305.716 341.039 305.716 324.32C305.716 324.192 305.716 324.192 305.716 324.063L305.973 324.32L310.217 248.055C310.474 243.811 304.816 242.268 302.758 245.869L282.566 281.494Z" fill="#199C7D"/>
<path d="M120.391 330.622V354.801H275.493C290.155 354.801 302.372 344.383 305.202 330.622H120.391Z" fill="#EFFD9C"/>
<path d="M23.4192 344.255C23.4192 325.221 38.8523 309.787 57.8864 309.787H218.133V342.454C218.133 369.076 196.527 390.554 170.033 390.554H69.847C44.2538 390.554 23.4192 369.848 23.4192 344.255Z" fill="#24A98B"/>
<path d="M201.8 360.974V182.722H120.905V325.735C120.905 345.155 105.086 360.974 85.6662 360.974H26.5061C33.1938 378.207 50.0415 390.554 69.7187 390.554H169.905C182.123 390.554 193.183 386.053 201.672 378.593V360.974H201.8Z" fill="#EFFD9C"/>
<path d="M213.632 362.646C206.301 356.215 201.543 346.698 201.543 336.152V309.659H120.648V371.391V388.882C121.291 389.396 121.934 390.039 122.577 390.554H169.905C189.325 390.554 206.044 379.108 213.632 362.646Z" fill="#EFFD9C"/>
<path d="M139.21 121.73V140.764C139.21 153.496 149.113 164.3 161.717 164.685C174.964 165.2 185.895 154.525 185.895 141.279V121.601L172.005 115.943L163.775 106.168C163.131 105.397 161.845 105.397 161.202 106.168L153.229 115.943L139.21 121.73Z" fill="#FC4C8B"/>
<path d="M211.244 102.213C208.286 112.115 200.183 119.446 190.666 120.861C179.863 122.404 168.803 115.974 163.916 105.171C163.272 103.884 161.472 103.884 160.829 105.171C157.099 113.273 150.026 119.832 141.923 120.989C129.834 122.661 117.359 114.43 113.629 101.055" fill="#24A98B"/>
<path d="M139.178 127.003C127.475 127.003 116.672 119.672 111.656 108.483C110.499 105.911 111.913 102.953 114.614 102.31C116.8 101.667 118.987 102.825 119.887 104.882C123.874 113.628 132.877 119.158 141.879 117.872C147.924 116.972 153.968 111.827 157.312 104.754C158.341 102.567 160.527 101.024 162.971 101.024C165.415 101.024 167.601 102.439 168.501 104.625C172.617 113.628 181.619 119.029 190.493 117.743C197.052 116.843 202.84 112.342 205.926 105.911C206.955 103.853 209.142 102.825 211.328 103.468C214.029 104.239 215.315 107.197 214.029 109.769C209.785 118.901 201.425 125.331 191.779 126.617C180.59 128.161 169.402 122.63 162.842 112.856C157.955 120.444 150.625 125.588 142.908 126.617C141.751 127.003 140.464 127.003 139.178 127.003Z" fill="#096162"/>
<path d="M82.1126 115.459C88.3632 115.459 93.4302 106.707 93.4302 95.9107C93.4302 85.1144 88.3632 76.3622 82.1126 76.3622C75.8621 76.3622 70.795 85.1144 70.795 95.9107C70.795 106.707 75.8621 115.459 82.1126 115.459Z" fill="#1C1C1C"/>
<path d="M243.645 115.459C249.896 115.459 254.963 106.707 254.963 95.9107C254.963 85.1144 249.896 76.3622 243.645 76.3622C237.395 76.3622 232.328 85.1144 232.328 95.9107C232.328 106.707 237.395 115.459 243.645 115.459Z" fill="#1C1C1C"/>
<path d="M200.514 337.053H121.42C109.716 337.053 100.585 327.15 101.357 315.575L106.372 245.354H215.561L220.448 315.575C221.349 327.278 212.218 337.053 200.514 337.053Z" fill="#2F2F2F"/>
<path d="M215.69 255.9L176.078 258.73C169.391 259.244 163.732 254.228 163.217 247.541C162.703 240.853 167.719 235.194 174.406 234.68L214.018 231.85C220.706 231.336 226.364 236.352 226.879 243.039C227.265 249.727 222.249 255.514 215.69 255.9Z" fill="#2F2F2F"/>
<path d="M109.459 255.9L150.357 258.858C157.044 259.373 162.703 254.357 163.218 247.669C163.732 240.982 158.716 235.323 152.029 234.808L111.131 231.85C104.443 231.336 98.7846 236.352 98.2701 243.039C97.8843 249.727 102.771 255.515 109.459 255.9Z" fill="#2F2F2F"/>
<path d="M198.301 261.768C192.425 256.066 183.094 256.066 177.391 261.768C172.034 267.125 171.516 275.766 176.182 281.641C176.182 281.641 176.182 281.641 176.182 281.468C176.182 280.604 176.527 279.74 177.218 279.049C177.91 278.358 178.774 278.012 179.638 278.012C179.811 278.012 179.811 278.012 179.983 278.012C177.218 274.211 177.564 268.854 181.02 265.397C184.822 261.596 190.87 261.596 194.672 265.397C195.709 266.434 197.264 266.434 198.301 265.397C199.511 264.361 199.511 262.805 198.301 261.768C198.301 261.768 198.474 261.768 198.301 261.768Z" fill="#24A98B"/>
<path d="M200.029 263.669C200.029 264.533 199.684 265.397 198.992 266.089C198.301 266.78 197.437 267.125 196.573 267.125C196.4 267.125 196.4 267.125 196.227 267.125C198.992 270.927 198.647 276.284 195.191 279.74C191.389 283.542 185.341 283.542 181.539 279.74C180.502 278.703 178.947 278.703 177.91 279.74C176.873 280.777 176.873 282.332 177.91 283.369C183.785 289.072 193.117 289.072 198.819 283.369C204.349 278.012 204.695 269.372 200.029 263.669Z" fill="#FFDF00"/>
</svg>
