<svg width="426" height="441" viewBox="0 0 426 441" fill="none" xmlns="http://www.w3.org/2000/svg">
<g clip-path="url(#clip0_40000083_700)">
<path d="M403.097 130.334C405.455 134.065 408.04 137.676 410.118 141.566C416.101 152.204 420.47 163.672 423.082 175.594C428.331 201.681 424.307 225.916 408.239 247.633C398.034 261.422 385.124 272.094 370.348 280.675C346.526 294.517 320.665 302.591 293.806 307.894C293.364 307.952 292.918 307.974 292.473 307.961C290.64 306.215 288.453 304.885 286.059 304.062C283.665 303.239 281.123 302.942 278.604 303.191C265.28 304.23 251.89 305.043 238.527 305.976C234.703 306.229 230.866 306.402 227.096 306.948C219.741 308.014 215.211 312.397 213.28 319.978C211.134 312.211 206.325 307.748 198.81 307.028C188.245 306.002 177.64 305.536 167.061 304.776C161.332 304.363 155.63 303.844 149.914 303.351C143.519 302.805 137.323 302.924 132.407 307.961C111.701 304.315 91.5111 298.177 72.2789 289.681C57.4981 283.239 43.8145 274.527 31.7228 263.861C15.8947 249.578 5.07618 232.298 1.25239 211.047C-1.18577 197.297 0.0932638 183.708 3.73053 170.291C7.82836 155.511 14.3669 141.52 23.076 128.895C26.6866 129.415 30.2839 130.015 33.9078 130.454C46.4184 132.013 58.929 133.585 71.4529 134.998C78.9672 135.837 86.5082 136.33 94.1025 137.076C95.7413 141.18 97.3001 145.323 100.764 148.308C105.054 151.905 109.984 152.171 113.861 148.174C116.352 145.656 117.951 142.259 119.963 139.261L145.557 140.9C152.738 156.421 164.543 165.255 181.89 166.107C181.983 172.996 181.797 179.897 182.236 186.759C182.449 191.442 183.782 196.006 186.123 200.068C188.465 204.129 191.746 207.57 195.693 210.101C205.579 216.763 216.171 217.269 226.656 211.78C237.142 206.291 242.458 197.324 242.911 185.586C243.177 179.058 242.911 172.516 242.991 165.974C260.844 166.187 273.208 157.887 280.576 141.792L306.276 140.38C307.196 141.939 308.022 143.578 309.034 145.07C314.363 152.784 322.038 153.064 327.554 145.47C328.99 143.217 330.277 140.871 331.404 138.448C345.074 137.116 358.743 135.784 372.4 134.291C382.672 133.172 392.904 131.68 403.097 130.334Z" fill="#EEFC9B"/>
<path d="M93.9959 137.076C86.4549 136.396 78.9139 135.837 71.3463 134.998C58.8224 133.585 46.3118 132.013 33.8012 130.454C30.1773 130.015 26.58 129.415 22.9694 128.895C27.6592 122.42 32.3756 115.959 37.0388 109.47C42.9943 101.196 49.1763 93.0957 54.7721 84.5955C67.5492 65.3033 81.8984 47.5833 100.391 33.5006C118.884 19.4178 139.975 10.6778 162.678 5.92133C181.224 2.04425 199.983 -0.806941 218.969 0.258924C246.321 1.76446 273.181 5.93465 298.415 17.3927C320.186 27.2786 338.185 42.0808 353.041 60.5869C360.076 69.3136 366.178 78.7998 372.799 87.8863C379.608 97.2126 386.549 106.539 393.397 115.865C396.288 119.862 399.086 123.859 401.884 127.856C402.36 128.668 402.766 129.52 403.097 130.401C392.851 131.733 382.619 133.239 372.346 134.398C358.69 135.917 345.02 137.183 331.351 138.555C332.992 132.765 333.534 126.718 332.949 120.728C332.15 114.386 330.485 108.391 325.995 103.608C321.505 98.8248 315.483 98.5849 311.139 103.501C308.829 106.183 307.023 109.262 305.81 112.588C302.412 121.914 303.145 131.24 306.276 140.487L280.522 141.832C280.269 137.915 278.79 135.877 275.766 135.237C272.741 134.598 271.156 135.717 268.864 139.061C266.786 142.262 264.389 145.244 261.71 147.961C255.821 153.637 248.48 155.182 240.659 153.65C230.986 151.745 224.444 145.656 220.274 136.903C219.698 135.496 218.714 134.295 217.448 133.454C216.182 132.613 214.693 132.172 213.173 132.186C211.59 132.138 210.029 132.565 208.692 133.413C207.355 134.261 206.303 135.491 205.672 136.943C204.509 139.375 203.088 141.675 201.435 143.804C194.654 152.145 186.673 156.488 175.641 153.544C167.141 151.279 161.265 145.776 157.148 138.129C156.376 136.51 155.137 135.16 153.591 134.251C149.194 132.146 145.597 135.304 145.597 140.913L119.99 139.274C121.8 133.636 122.474 127.695 121.975 121.794C121.402 115.279 119.71 109.124 115.313 103.994C110.783 98.6649 103.695 98.5316 99.3252 103.994C97.4219 106.487 95.908 109.254 94.8353 112.201C91.7443 120.315 92.144 128.696 93.9959 137.076Z" fill="#24A88B"/>
<path d="M132.474 307.961C137.39 302.925 143.585 302.805 149.98 303.351C155.696 303.844 161.399 304.363 167.128 304.776C177.706 305.536 188.312 306.002 198.877 307.028C206.391 307.748 211.201 312.211 213.346 319.978C215.278 312.397 219.808 307.987 227.162 306.948C230.933 306.402 234.77 306.229 238.594 305.976C251.917 305.043 265.32 304.23 278.67 303.191C281.185 302.946 283.723 303.245 286.111 304.068C288.5 304.891 290.683 306.219 292.513 307.961C295.964 312.597 297.603 317.673 295.804 323.389C295.067 326.05 293.62 328.46 291.618 330.361C289.616 332.262 287.135 333.583 284.439 334.181C283.933 334.301 283.453 334.487 282.747 334.701C283.134 340.683 283.48 346.692 283.893 352.607C284.533 362.084 285.199 371.548 285.892 380.999C285.972 382.132 286.185 383.237 286.345 384.357C286.798 391.738 287.144 399.132 287.744 406.5C288.343 413.868 288.596 421.156 284.799 427.817C279.79 435.345 272.941 439.808 263.815 440.594C263.295 440.594 262.776 440.474 262.243 440.474H155.55C142.946 438.209 134.605 430.269 132.82 418.025C132.181 413.708 132.82 409.205 132.953 404.781C133.46 397.969 133.957 391.151 134.446 384.33C135.183 374.604 135.916 364.873 136.644 355.139C137.137 348.544 137.63 341.935 137.976 335.327C137.997 334.894 137.922 334.461 137.756 334.06C137.59 333.66 137.338 333.3 137.017 333.009C127.384 326.427 125.719 318.02 132.221 308.4C132.325 308.266 132.41 308.118 132.474 307.961Z" fill="#242424"/>
<path d="M242.991 166.014C242.991 172.556 243.177 179.098 242.911 185.626C242.458 197.364 237.048 206.384 226.656 211.82C216.264 217.256 205.579 216.776 195.693 210.141C191.748 207.611 188.468 204.173 186.126 200.113C183.785 196.054 182.451 191.493 182.236 186.812C181.797 179.95 181.983 173.049 181.89 166.161C195.466 165.654 205.299 158.753 212.533 148.294C216.277 151.785 219.821 155.502 223.778 158.673C229.307 163.11 236.022 165.002 242.991 166.014Z" fill="#FB4C8A"/>
<path d="M242.99 166.014C236.022 165.002 229.307 163.11 223.725 158.66C219.728 155.489 216.224 151.772 212.48 148.281C205.299 158.74 195.466 165.601 181.836 166.147C164.516 165.295 152.685 156.461 145.504 140.94C145.504 135.264 149.141 132.106 153.498 134.278C155.044 135.186 156.283 136.537 157.055 138.155C161.172 145.803 167.048 151.305 175.548 153.57C186.58 156.515 194.56 152.238 201.342 143.831C202.995 141.702 204.416 139.401 205.579 136.969C206.211 135.497 207.276 134.251 208.632 133.397C209.988 132.543 211.572 132.121 213.173 132.186C214.706 132.164 216.21 132.607 217.487 133.456C218.765 134.305 219.755 135.52 220.328 136.943C224.498 145.63 230.986 151.785 240.712 153.69C248.533 155.222 255.874 153.69 261.763 148.001C264.443 145.284 266.84 142.302 268.918 139.101C271.209 135.757 272.821 134.638 275.819 135.277C278.817 135.917 280.322 137.942 280.576 141.872C273.208 157.927 260.844 166.227 242.99 166.014Z" fill="#0B6262"/>
<path d="M306.276 140.42C303.119 131.174 302.412 121.767 305.81 112.521C307.023 109.195 308.829 106.117 311.139 103.435C315.483 98.5183 321.438 98.7048 325.995 103.541C330.551 108.378 332.15 114.32 332.949 120.662C333.534 126.652 332.992 132.698 331.351 138.488C330.241 140.91 328.972 143.255 327.554 145.51C322.038 153.037 314.31 152.824 309.034 145.11C308.022 143.618 307.169 141.979 306.276 140.42Z" fill="#1C1D1D"/>
<path d="M93.9959 137.076C92.0907 128.696 91.691 120.315 94.782 112.148C95.8933 109.233 97.4384 106.502 99.3652 104.047C103.722 98.5316 110.81 98.6249 115.353 104.047C119.697 109.177 121.389 115.332 122.015 121.847C122.496 127.761 121.799 133.712 119.963 139.354C117.965 142.352 116.366 145.749 113.874 148.268C109.971 152.265 105.068 151.958 100.791 148.361C97.2468 145.323 95.688 141.18 93.9959 137.076Z" fill="#1C1D1D"/>
<path d="M259.749 341.789C255.256 337.439 249.194 335 242.878 335C236.562 335 230.5 337.439 226.007 341.789C221.854 345.869 219.374 351.302 219.039 357.056C218.704 362.809 220.537 368.483 224.19 373C224.19 371.553 224.774 370.166 225.814 369.14C226.855 368.114 228.268 367.533 229.745 367.524H230.328C228.139 364.574 227.099 360.956 227.394 357.321C227.69 353.686 229.302 350.274 231.939 347.702C234.866 344.868 238.815 343.279 242.929 343.279C247.044 343.279 250.993 344.868 253.92 347.702C254.305 348.084 254.765 348.387 255.271 348.594C255.777 348.801 256.32 348.907 256.869 348.907C257.417 348.907 257.96 348.801 258.466 348.594C258.972 348.387 259.432 348.084 259.818 347.702C260.576 346.937 261 345.912 261 344.846C261 343.78 260.576 342.755 259.818 341.99L259.749 341.789Z" fill="#24A98B"/>
<path d="M261.875 345.201C261.866 346.65 261.274 348.036 260.227 349.061C259.18 350.085 257.762 350.664 256.282 350.673H255.733C257.909 353.625 258.942 357.237 258.647 360.865C258.351 364.493 256.747 367.9 254.12 370.477C251.185 373.31 247.228 374.899 243.104 374.899C238.981 374.899 235.024 373.31 232.089 370.477C231.305 369.715 230.244 369.287 229.138 369.287C228.032 369.287 226.971 369.715 226.187 370.477C225.425 371.247 225 372.276 225 373.347C225 374.418 225.425 375.447 226.187 376.217C230.683 380.563 236.749 383 243.07 383C249.391 383 255.457 380.563 259.954 376.217C264.124 372.143 266.618 366.71 266.96 360.954C267.301 355.198 265.467 349.519 261.807 345L261.875 345.201Z" fill="#FFDF00"/>
</g>
<defs>
<clipPath id="clip0_40000083_700">
<rect width="425.28" height="440.64" fill="white"/>
</clipPath>
</defs>
</svg>
