<svg width="441" height="461" viewBox="0 0 441 461" fill="none" xmlns="http://www.w3.org/2000/svg">
<g clip-path="url(#clip0_4460_2)">
<path d="M417.329 136.701C419.769 140.595 422.443 144.365 424.593 148.426C430.783 159.531 435.303 171.503 438.006 183.949C443.437 211.182 439.274 236.482 422.65 259.153C412.091 273.548 398.734 284.689 383.447 293.646C358.8 308.098 332.044 316.526 304.255 322.062C303.798 322.122 303.337 322.146 302.876 322.131C300.98 320.309 298.717 318.921 296.24 318.062C293.764 317.202 291.133 316.892 288.527 317.152C274.742 318.237 260.889 319.085 247.063 320.059C243.107 320.323 239.137 320.504 235.236 321.074C227.627 322.187 222.94 326.763 220.942 334.677C218.722 326.568 213.746 321.909 205.972 321.158C195.041 320.087 184.068 319.6 173.123 318.807C167.196 318.376 161.296 317.834 155.383 317.319C148.766 316.749 142.356 316.874 137.27 322.131C115.847 318.325 94.9586 311.918 75.0607 303.049C59.7683 296.323 45.611 287.229 33.1008 276.094C16.7249 261.184 5.5319 243.144 1.57576 220.96C-0.946791 206.606 0.376517 192.419 4.13967 178.413C8.37935 162.984 15.1442 148.378 24.1547 135.199C27.8903 135.741 31.6121 136.367 35.3615 136.826C48.3051 138.453 61.2487 140.095 74.2061 141.569C81.9805 142.445 89.7825 142.96 97.6397 143.739C99.3352 148.023 100.948 152.348 104.532 155.464C108.97 159.219 114.071 159.497 118.082 155.325C120.66 152.696 122.314 149.149 124.395 146.02L150.875 147.73C158.305 163.934 170.518 173.156 188.465 174.046C188.562 181.236 188.369 188.441 188.824 195.604C189.044 200.493 190.423 205.258 192.846 209.498C195.268 213.738 198.663 217.33 202.746 219.972C212.974 226.926 223.933 227.455 234.781 221.725C245.63 215.994 251.13 206.634 251.598 194.38C251.874 187.565 251.598 180.736 251.681 173.907C270.152 174.129 282.944 165.464 290.567 148.662L317.157 147.188C318.108 148.815 318.963 150.526 320.011 152.084C325.524 160.137 333.464 160.429 339.171 152.501C340.658 150.149 341.988 147.7 343.155 145.171C357.298 143.78 371.44 142.39 385.569 140.832C396.197 139.663 406.784 138.106 417.329 136.701Z" fill="#EEFC9B"/>
<path d="M97.5294 143.739C89.7274 143.03 81.9254 142.445 74.0958 141.569C61.1384 140.095 48.1948 138.454 35.2512 136.826C31.5018 136.367 27.78 135.741 24.0444 135.199C28.8966 128.439 33.7763 121.694 38.6008 114.92C44.7625 106.283 51.1585 97.8263 56.9479 88.9526C70.1672 68.8128 85.0131 50.3142 104.146 35.6128C123.279 20.9113 145.1 11.7872 168.588 6.8218C187.776 2.77438 207.185 -0.202082 226.828 0.910612C255.127 2.48229 282.917 6.83571 309.024 18.7972C331.548 29.1174 350.171 44.57 365.541 63.8891C372.819 72.9993 379.132 82.9023 385.983 92.388C393.027 102.124 400.209 111.86 407.294 121.596C410.285 125.769 413.18 129.941 416.074 134.114C416.567 134.962 416.986 135.851 417.329 136.771C406.729 138.161 396.142 139.733 385.514 140.943C371.385 142.529 357.242 143.85 343.1 145.283C344.798 139.238 345.359 132.926 344.754 126.673C343.927 120.052 342.204 113.793 337.558 108.8C332.913 103.807 326.682 103.557 322.189 108.689C319.798 111.489 317.93 114.703 316.675 118.175C313.16 127.911 313.918 137.647 317.157 147.299L290.512 148.704C290.25 144.615 288.72 142.487 285.591 141.819C282.462 141.152 280.821 142.32 278.45 145.811C276.301 149.153 273.821 152.266 271.048 155.102C264.955 161.027 257.36 162.641 249.269 161.041C239.261 159.052 232.493 152.696 228.179 143.558C227.583 142.09 226.564 140.836 225.254 139.958C223.944 139.08 222.404 138.619 220.831 138.634C219.194 138.584 217.579 139.03 216.196 139.915C214.812 140.8 213.724 142.084 213.071 143.6C211.867 146.139 210.398 148.54 208.687 150.763C201.671 159.47 193.414 164.004 182.001 160.93C173.206 158.566 167.127 152.821 162.868 144.838C162.069 143.148 160.787 141.738 159.187 140.79C154.638 138.593 150.917 141.889 150.917 147.745L124.423 146.034C126.296 140.148 126.994 133.946 126.477 127.786C125.884 120.984 124.133 114.558 119.585 109.204C114.898 103.64 107.564 103.501 103.043 109.204C101.074 111.806 99.5077 114.695 98.3978 117.771C95.1998 126.242 95.6134 134.99 97.5294 143.739Z" fill="#24A88B"/>
<path d="M137.339 322.131C142.425 316.874 148.835 316.749 155.452 317.319C161.365 317.834 167.265 318.376 173.192 318.807C184.137 319.6 195.11 320.087 206.041 321.158C213.815 321.909 218.791 326.568 221.011 334.677C223.009 326.763 227.696 322.159 235.305 321.074C239.206 320.504 243.176 320.323 247.132 320.059C260.917 319.085 274.784 318.237 288.596 317.152C291.197 316.896 293.823 317.208 296.294 318.068C298.766 318.927 301.025 320.313 302.918 322.131C306.488 326.972 308.184 332.271 306.323 338.238C305.56 341.015 304.063 343.531 301.992 345.516C299.92 347.5 297.353 348.879 294.565 349.504C294.041 349.629 293.544 349.824 292.814 350.046C293.214 356.291 293.572 362.564 293.999 368.739C294.661 378.633 295.35 388.513 296.067 398.379C296.15 399.561 296.37 400.715 296.536 401.884C297.004 409.589 297.363 417.309 297.983 425C298.603 432.692 298.865 440.3 294.937 447.254C289.754 455.112 282.669 459.772 273.226 460.592C272.689 460.592 272.151 460.467 271.6 460.467H161.214C148.174 458.103 139.544 449.813 137.697 437.031C137.036 432.525 137.697 427.823 137.835 423.206C138.359 416.094 138.874 408.977 139.379 401.856C140.142 391.703 140.9 381.545 141.654 371.382C142.164 364.497 142.674 357.599 143.032 350.7C143.053 350.248 142.976 349.796 142.804 349.378C142.632 348.959 142.371 348.584 142.039 348.28C132.073 341.409 130.35 332.632 137.077 322.59C137.185 322.45 137.273 322.296 137.339 322.131Z" fill="#F6C720"/>
<path d="M251.681 173.948C251.681 180.777 251.874 187.607 251.598 194.422C251.13 206.675 245.533 216.092 234.781 221.766C224.029 227.441 212.974 226.94 202.746 220.014C198.665 217.373 195.271 213.783 192.849 209.546C190.426 205.308 189.046 200.546 188.824 195.66C188.369 188.497 188.562 181.292 188.465 174.101C202.512 173.573 212.685 166.368 220.17 155.45C224.043 159.094 227.71 162.974 231.804 166.285C237.524 170.916 244.472 172.891 251.681 173.948Z" fill="#FB4C8A"/>
<path d="M251.681 173.948C244.472 172.891 237.524 170.916 231.749 166.271C227.613 162.961 223.988 159.08 220.115 155.436C212.685 166.354 202.512 173.517 188.41 174.088C170.49 173.197 158.25 163.976 150.82 147.772C150.82 141.847 154.583 138.551 159.091 140.818C160.691 141.766 161.972 143.176 162.771 144.865C167.031 152.849 173.11 158.593 181.904 160.958C193.318 164.032 201.574 159.567 208.591 150.791C210.301 148.568 211.771 146.166 212.974 143.628C213.629 142.09 214.73 140.79 216.133 139.898C217.536 139.007 219.175 138.566 220.831 138.634C222.418 138.611 223.974 139.073 225.295 139.959C226.616 140.846 227.641 142.115 228.234 143.6C232.548 152.668 239.261 159.094 249.324 161.083C257.415 162.682 265.011 161.083 271.103 155.144C273.876 152.307 276.356 149.194 278.506 145.853C280.876 142.362 282.544 141.194 285.646 141.861C288.747 142.529 290.305 144.643 290.567 148.746C282.944 165.506 270.152 174.171 251.681 173.948Z" fill="#0B6262"/>
<path d="M317.157 147.23C313.89 137.577 313.16 127.757 316.675 118.105C317.93 114.633 319.798 111.419 322.189 108.619C326.682 103.487 332.844 103.682 337.558 108.73C342.272 113.779 343.927 119.983 344.754 126.603C345.359 132.856 344.798 139.168 343.1 145.213C341.951 147.741 340.639 150.189 339.171 152.543C333.464 160.401 325.469 160.179 320.011 152.125C318.963 150.568 318.081 148.857 317.157 147.23Z" fill="#1C1D1D"/>
<path d="M97.5293 143.739C95.5582 134.99 95.1446 126.242 98.3426 117.716C99.4923 114.672 101.091 111.821 103.084 109.259C107.592 103.501 114.925 103.598 119.626 109.259C124.12 114.614 125.87 121.04 126.518 127.841C127.016 134.015 126.295 140.227 124.395 146.117C122.328 149.247 120.673 152.793 118.096 155.422C114.057 159.595 108.984 159.275 104.559 155.52C100.893 152.348 99.28 148.023 97.5293 143.739Z" fill="#1C1D1D"/>
<path d="M273.24 361.674C271.434 359.873 268.997 358.863 266.458 358.863C263.919 358.863 261.482 359.873 259.676 361.674C258.006 363.363 257.01 365.612 256.875 367.994C256.74 370.376 257.477 372.725 258.945 374.595C258.945 373.996 259.18 373.422 259.599 372.997C260.017 372.572 260.585 372.331 261.178 372.328H261.413C260.533 371.107 260.115 369.609 260.234 368.104C260.352 366.599 261 365.187 262.061 364.122C263.237 362.949 264.825 362.291 266.479 362.291C268.133 362.291 269.72 362.949 270.897 364.122C271.052 364.28 271.236 364.405 271.44 364.491C271.643 364.577 271.862 364.621 272.082 364.621C272.302 364.621 272.521 364.577 272.724 364.491C272.928 364.405 273.112 364.28 273.267 364.122C273.572 363.805 273.743 363.381 273.743 362.939C273.743 362.498 273.572 362.074 273.267 361.757L273.24 361.674Z" fill="white"/>
<path d="M274.343 362.912C274.339 363.512 274.101 364.086 273.681 364.511C273.26 364.935 272.691 365.175 272.096 365.179H271.875C272.75 366.402 273.165 367.899 273.046 369.402C272.927 370.905 272.283 372.317 271.227 373.385C270.049 374.559 268.459 375.217 266.803 375.217C265.146 375.217 263.557 374.559 262.378 373.385C262.063 373.069 261.637 372.892 261.192 372.892C260.748 372.892 260.322 373.069 260.007 373.385C259.701 373.704 259.53 374.13 259.53 374.574C259.53 375.018 259.701 375.444 260.007 375.763C261.813 377.564 264.25 378.574 266.789 378.574C269.328 378.574 271.765 377.564 273.571 375.763C275.246 374.075 276.248 371.824 276.385 369.439C276.522 367.054 275.786 364.701 274.315 362.828L274.343 362.912Z" fill="white"/>
<path d="M400.945 115.971C395.143 108.984 389.693 101.101 384.595 92.8603C343.457 26.0365 300.56 9.01706 240.435 2.20928C226.547 0.596908 212.482 0.596908 198.77 2.20928C138.996 9.19621 96.2758 26.2157 55.4891 92.8603C50.3908 101.101 44.9409 108.984 39.3151 115.971C16.4606 143.919 3.62686 171.15 0.638184 196.589C11.8897 201.247 161.148 259.651 439.973 209.667C440.676 180.466 427.491 148.756 400.945 115.971Z" fill="#24A98B"/>
<path d="M0.63817 196.589C-1.29568 213.251 1.16558 229.374 8.02195 244.244C32.8104 297.81 111.922 329.879 219.69 329.879C219.866 329.879 220.042 329.879 220.218 329.879C328.162 329.879 407.274 297.989 432.062 244.244C437.16 233.316 439.798 221.671 439.973 209.667C161.148 259.651 11.8897 201.247 0.63817 196.589Z" fill="#EFFD9C"/>
<path d="M438.567 244.602C438.391 244.781 438.391 245.139 438.215 245.319C438.391 245.139 438.567 244.781 438.567 244.602Z" fill="black"/>
<path d="M188.046 241.736V268.25C188.046 285.986 201.583 301.035 218.811 301.572C236.919 302.289 251.863 287.419 251.863 268.967V241.556L232.876 233.674L221.624 220.058C220.745 218.983 218.987 218.983 218.108 220.058L207.208 233.674L188.046 241.736Z" fill="#FC4C8B"/>
<path d="M286.848 215.4C282.804 229.195 271.729 239.407 258.719 241.378C243.952 243.527 228.832 234.57 222.152 219.521C221.273 217.729 218.812 217.729 217.933 219.521C212.834 230.808 203.165 239.944 192.089 241.557C175.564 243.886 158.511 232.42 153.412 213.788" fill="#24A98B"/>
<path d="M286.848 215.4C282.804 229.195 271.729 239.407 258.719 241.378C243.952 243.527 228.832 234.57 222.152 219.521C221.273 217.729 218.812 217.729 217.933 219.521C212.834 230.808 203.165 239.944 192.089 241.557C175.564 243.886 158.511 232.42 153.412 213.788" stroke="#096162" stroke-width="14.5936" stroke-miterlimit="10" stroke-linecap="round"/>
<path d="M177.849 94.2937C161.499 77.6325 134.953 77.6325 118.603 94.2937L109.637 103.43L100.671 94.1145C84.3211 77.4534 57.7746 77.4534 41.4248 94.1145C25.075 110.776 25.075 137.828 41.4248 154.489L50.5667 163.805L50.215 163.984L109.461 224.358L177.849 154.668C194.199 138.007 194.199 110.955 177.849 94.2937Z" fill="#FC4C8B"/>
<path d="M398.659 94.2937C382.309 77.6325 355.763 77.6325 339.413 94.2937L330.447 103.43L321.305 94.1145C304.955 77.4534 278.409 77.4534 262.059 94.1145C245.709 110.776 245.709 137.828 262.059 154.489L271.201 163.805L271.025 163.984L330.271 224.358L398.659 154.668C415.009 138.007 415.009 110.955 398.659 94.2937Z" fill="#FC4C8B"/>
</g>
<defs>
<clipPath id="clip0_4460_2">
<rect width="440" height="460" fill="white" transform="translate(0.280029 0.640137)"/>
</clipPath>
</defs>
</svg>
